<?xml version="1.0" encoding="UTF-8" standalone="no"?>
<svg
   xmlns:dc="http://purl.org/dc/elements/1.1/"
   xmlns:cc="http://creativecommons.org/ns#"
   xmlns:rdf="http://www.w3.org/1999/02/22-rdf-syntax-ns#"
   xmlns:svg="http://www.w3.org/2000/svg"
   xmlns="http://www.w3.org/2000/svg"
   xmlns:sodipodi="http://sodipodi.sourceforge.net/DTD/sodipodi-0.dtd"
   xmlns:inkscape="http://www.inkscape.org/namespaces/inkscape"
   viewBox="0.0 0.0 348.0 348.0"
   fill="none"
   version="1.1"
   id="svg6"
   sodipodi:docname="Bamboozling Button Grid.svg"
   inkscape:version="0.92.4 (5da689c313, 2019-01-14)">
  <metadata
     id="metadata12">
    <rdf:RDF>
      <cc:Work
         rdf:about="">
        <dc:format>image/svg+xml</dc:format>
        <dc:type
           rdf:resource="http://purl.org/dc/dcmitype/StillImage" />
        <dc:title />
      </cc:Work>
    </rdf:RDF>
  </metadata>
  <defs
     id="defs10" />
  <sodipodi:namedview
     pagecolor="#ffffff"
     bordercolor="#666666"
     borderopacity="1"
     objecttolerance="10"
     gridtolerance="10"
     guidetolerance="10"
     inkscape:pageopacity="0"
     inkscape:pageshadow="2"
     inkscape:window-width="1366"
     inkscape:window-height="705"
     id="namedview8"
     showgrid="false"
     inkscape:zoom="1.3563218"
     inkscape:cx="52.347454"
     inkscape:cy="202.64262"
     inkscape:window-x="-8"
     inkscape:window-y="-8"
     inkscape:window-maximized="1"
     inkscape:current-layer="svg6" />
  <path
     d="M5.079 5.776h336.913v337.67H5.08z"
     stroke-width="2"
     stroke="#000"
     id="path2" />
  <path
     d="M282.734 40.554c0-8.376 6.966-15.165 15.56-15.165 4.126 0 8.084 1.597 11.001 4.441 2.918 2.844 4.558 6.702 4.558 10.724 0 8.376-6.966 15.165-15.56 15.165-8.593 0-15.559-6.79-15.559-15.165z"
     stroke-width="2"
     stroke="#000"
     id="path4" />
  <g
     id="g1512">
    <path
       style="fill:#000000;stroke:#000000;stroke-opacity:1"
       d="M 41.288136,36.12711 H 238.88137 V 78.889824 H 41.288136 Z"
       id="rect27" />
    <g
       aria-label="&lt;DISPLAY&gt;"
       transform="scale(0.81771852,1.2229147)"
       style="font-style:normal;font-weight:normal;font-size:36.19527817px;line-height:1.25;font-family:sans-serif;letter-spacing:0px;word-spacing:0px;fill:#ffffff;fill-opacity:1;stroke:none;stroke-width:0.90488201"
       id="text862-7">
      <path
         d="M 91.959342,58.158197 71.564151,49.091704 V 46.900193 L 91.959342,37.8337 v 3.181225 l -16.082863,6.981023 16.082863,6.981023 z"
         style="stroke-width:0.90488201"
         id="path1515" />
      <path
         d="m 122.46376,46.387662 q 0,3.587716 -1.57294,6.503839 -1.55526,2.916124 -4.15327,4.52441 -1.80269,1.113429 -4.02955,1.608286 -2.20918,0.494857 -5.83224,0.494857 h -6.64523 V 33.203249 h 6.57453 q 3.85282,0 6.11502,0.565551 2.27988,0.547878 3.85282,1.519919 2.68637,1.67898 4.18862,4.47139 1.50224,2.792409 1.50224,6.627553 z m -3.65841,-0.05302 q 0,-3.092859 -1.07808,-5.213676 -1.07808,-2.120817 -3.21657,-3.340287 -1.55527,-0.883673 -3.30494,-1.219469 -1.74968,-0.35347 -4.18862,-0.35347 h -3.28726 v 20.306824 h 3.28726 q 2.52731,0 4.4007,-0.371143 1.89106,-0.371143 3.464,-1.378532 1.96176,-1.254816 2.9338,-3.304939 0.98971,-2.050124 0.98971,-5.125308 z"
         style="stroke-width:0.90488201"
         id="path1517" />
      <path
         d="m 137.4332,59.519054 h -10.39201 v -2.686368 h 3.44633 V 35.889617 h -3.44633 v -2.686368 h 10.39201 v 2.686368 h -3.44633 v 20.943069 h 3.44633 z"
         style="stroke-width:0.90488201"
         id="path1519" />
      <path
         d="m 162.5472,52.007827 q 0,1.537593 -0.72461,3.039838 -0.70694,1.502246 -1.9971,2.544981 -1.41388,1.131102 -3.30494,1.767347 -1.87339,0.636245 -4.52441,0.636245 -2.84543,0 -5.12531,-0.530204 -2.2622,-0.530204 -4.61278,-1.572939 v -4.383022 h 0.24743 q 1.99711,1.661306 4.61278,2.562654 2.61567,0.901347 4.91323,0.901347 3.25192,0 5.05461,-1.21947 1.82037,-1.21947 1.82037,-3.251919 0,-1.749675 -0.866,-2.580328 -0.84833,-0.830653 -2.598,-1.290164 -1.32551,-0.353469 -2.88078,-0.583224 -1.53759,-0.229755 -3.26959,-0.583225 -3.49935,-0.742286 -5.196,-2.527307 -1.67898,-1.802695 -1.67898,-4.683471 0,-3.30494 2.7924,-5.408084 2.79241,-2.120817 7.08707,-2.120817 2.77473,0 5.08996,0.530205 2.31522,0.530204 4.10025,1.307837 V 38.6997 h -0.24743 q -1.50225,-1.27249 -3.95886,-2.103144 -2.43894,-0.848326 -5.00159,-0.848326 -2.81009,0 -4.52441,1.166449 -1.69666,1.166449 -1.69666,3.004491 0,1.643633 0.84833,2.580327 0.84833,0.936695 2.98682,1.431552 1.1311,0.247429 3.21657,0.600898 2.08547,0.35347 3.53469,0.724613 2.9338,0.777632 4.41837,2.350572 1.48457,1.572939 1.48457,4.400695 z"
         style="stroke-width:0.90488201"
         id="path1521" />
      <path
         d="m 185.38134,41.156313 q 0,1.749674 -0.61858,3.25192 -0.60089,1.484572 -1.69665,2.580327 -1.36086,1.360858 -3.21657,2.050123 -1.85572,0.671592 -4.68347,0.671592 h -3.49935 v 9.808779 h -3.49935 V 33.203249 h 7.14008 q 2.36825,0 4.01188,0.40649 1.64364,0.388817 2.91613,1.237143 1.50224,1.007388 2.31522,2.509634 0.83066,1.502245 0.83066,3.799797 z m -3.64074,0.08837 q 0,-1.360858 -0.47718,-2.368246 -0.47719,-1.007388 -1.44923,-1.643633 -0.84833,-0.547878 -1.94408,-0.777633 -1.07808,-0.247429 -2.73939,-0.247429 h -3.464 v 10.515718 h 2.95147 q 2.12082,0 3.44633,-0.371143 1.32551,-0.388816 2.15616,-1.21947 0.83065,-0.848327 1.16645,-1.785021 0.35347,-0.936694 0.35347,-2.103143 z"
         style="stroke-width:0.90488201"
         id="path1523" />
      <path
         d="M 206.6602,59.519054 H 190.01178 V 33.203249 h 3.49935 v 23.205274 h 13.14907 z"
         style="stroke-width:0.90488201"
         id="path1525" />
      <path
         d="m 230.9082,59.519054 h -3.7291 l -2.58033,-7.334492 h -11.38172 l -2.58032,7.334492 h -3.55237 l 9.57902,-26.315805 h 4.6658 z m -7.38751,-10.338983 -4.61278,-12.919311 -4.63045,12.919311 z"
         style="stroke-width:0.90488201"
         id="path1527" />
      <path
         d="m 252.11638,33.203249 -9.2609,14.775026 v 11.540779 h -3.49935 V 48.349418 l -9.29625,-15.146169 h 3.87049 l 7.19311,11.770535 7.2638,-11.770535 z"
         style="stroke-width:0.90488201"
         id="path1529" />
      <path
         d="M 277.35409,49.091704 256.9589,58.158197 V 54.976971 L 273.04177,47.995948 256.9589,41.014925 V 37.8337 l 20.39519,9.066493 z"
         style="stroke-width:0.90488201"
         id="path1531" />
    </g>
  </g>
  <g
     id="g1556"
     transform="rotate(90,139.76471,212.02222)">
    <path
       id="path1534"
       d="M 41.288136,36.12711 H 238.88137 V 78.889824 H 41.288136 Z"
       style="fill:#000000;stroke:#000000;stroke-opacity:1"
       inkscape:connector-curvature="0" />
    <g
       id="g1554"
       style="font-style:normal;font-weight:normal;font-size:36.19527817px;line-height:1.25;font-family:sans-serif;letter-spacing:0px;word-spacing:0px;fill:#ffffff;fill-opacity:1;stroke:none;stroke-width:0.90488201"
       transform="scale(0.81771852,1.2229147)"
       aria-label="&lt;DISPLAY&gt;">
      <path
         id="path1536"
         style="stroke-width:0.90488201"
         d="M 91.959342,58.158197 71.564151,49.091704 V 46.900193 L 91.959342,37.8337 v 3.181225 l -16.082863,6.981023 16.082863,6.981023 z"
         inkscape:connector-curvature="0" />
      <path
         id="path1538"
         style="stroke-width:0.90488201"
         d="m 122.46376,46.387662 q 0,3.587716 -1.57294,6.503839 -1.55526,2.916124 -4.15327,4.52441 -1.80269,1.113429 -4.02955,1.608286 -2.20918,0.494857 -5.83224,0.494857 h -6.64523 V 33.203249 h 6.57453 q 3.85282,0 6.11502,0.565551 2.27988,0.547878 3.85282,1.519919 2.68637,1.67898 4.18862,4.47139 1.50224,2.792409 1.50224,6.627553 z m -3.65841,-0.05302 q 0,-3.092859 -1.07808,-5.213676 -1.07808,-2.120817 -3.21657,-3.340287 -1.55527,-0.883673 -3.30494,-1.219469 -1.74968,-0.35347 -4.18862,-0.35347 h -3.28726 v 20.306824 h 3.28726 q 2.52731,0 4.4007,-0.371143 1.89106,-0.371143 3.464,-1.378532 1.96176,-1.254816 2.9338,-3.304939 0.98971,-2.050124 0.98971,-5.125308 z"
         inkscape:connector-curvature="0" />
      <path
         id="path1540"
         style="stroke-width:0.90488201"
         d="m 137.4332,59.519054 h -10.39201 v -2.686368 h 3.44633 V 35.889617 h -3.44633 v -2.686368 h 10.39201 v 2.686368 h -3.44633 v 20.943069 h 3.44633 z"
         inkscape:connector-curvature="0" />
      <path
         id="path1542"
         style="stroke-width:0.90488201"
         d="m 162.5472,52.007827 q 0,1.537593 -0.72461,3.039838 -0.70694,1.502246 -1.9971,2.544981 -1.41388,1.131102 -3.30494,1.767347 -1.87339,0.636245 -4.52441,0.636245 -2.84543,0 -5.12531,-0.530204 -2.2622,-0.530204 -4.61278,-1.572939 v -4.383022 h 0.24743 q 1.99711,1.661306 4.61278,2.562654 2.61567,0.901347 4.91323,0.901347 3.25192,0 5.05461,-1.21947 1.82037,-1.21947 1.82037,-3.251919 0,-1.749675 -0.866,-2.580328 -0.84833,-0.830653 -2.598,-1.290164 -1.32551,-0.353469 -2.88078,-0.583224 -1.53759,-0.229755 -3.26959,-0.583225 -3.49935,-0.742286 -5.196,-2.527307 -1.67898,-1.802695 -1.67898,-4.683471 0,-3.30494 2.7924,-5.408084 2.79241,-2.120817 7.08707,-2.120817 2.77473,0 5.08996,0.530205 2.31522,0.530204 4.10025,1.307837 V 38.6997 h -0.24743 q -1.50225,-1.27249 -3.95886,-2.103144 -2.43894,-0.848326 -5.00159,-0.848326 -2.81009,0 -4.52441,1.166449 -1.69666,1.166449 -1.69666,3.004491 0,1.643633 0.84833,2.580327 0.84833,0.936695 2.98682,1.431552 1.1311,0.247429 3.21657,0.600898 2.08547,0.35347 3.53469,0.724613 2.9338,0.777632 4.41837,2.350572 1.48457,1.572939 1.48457,4.400695 z"
         inkscape:connector-curvature="0" />
      <path
         id="path1544"
         style="stroke-width:0.90488201"
         d="m 185.38134,41.156313 q 0,1.749674 -0.61858,3.25192 -0.60089,1.484572 -1.69665,2.580327 -1.36086,1.360858 -3.21657,2.050123 -1.85572,0.671592 -4.68347,0.671592 h -3.49935 v 9.808779 h -3.49935 V 33.203249 h 7.14008 q 2.36825,0 4.01188,0.40649 1.64364,0.388817 2.91613,1.237143 1.50224,1.007388 2.31522,2.509634 0.83066,1.502245 0.83066,3.799797 z m -3.64074,0.08837 q 0,-1.360858 -0.47718,-2.368246 -0.47719,-1.007388 -1.44923,-1.643633 -0.84833,-0.547878 -1.94408,-0.777633 -1.07808,-0.247429 -2.73939,-0.247429 h -3.464 V 46.72346 h 2.95147 q 2.12082,0 3.44633,-0.371143 1.32551,-0.388816 2.15616,-1.21947 0.83065,-0.848327 1.16645,-1.785021 0.35347,-0.936694 0.35347,-2.103143 z"
         inkscape:connector-curvature="0" />
      <path
         id="path1546"
         style="stroke-width:0.90488201"
         d="M 206.6602,59.519054 H 190.01178 V 33.203249 h 3.49935 v 23.205274 h 13.14907 z"
         inkscape:connector-curvature="0" />
      <path
         id="path1548"
         style="stroke-width:0.90488201"
         d="m 230.9082,59.519054 h -3.7291 l -2.58033,-7.334492 h -11.38172 l -2.58032,7.334492 h -3.55237 l 9.57902,-26.315805 h 4.6658 z m -7.38751,-10.338983 -4.61278,-12.919311 -4.63045,12.919311 z"
         inkscape:connector-curvature="0" />
      <path
         id="path1550"
         style="stroke-width:0.90488201"
         d="m 252.11638,33.203249 -9.2609,14.775026 v 11.540779 h -3.49935 V 48.349418 l -9.29625,-15.146169 h 3.87049 l 7.19311,11.770535 7.2638,-11.770535 z"
         inkscape:connector-curvature="0" />
      <path
         id="path1552"
         style="stroke-width:0.90488201"
         d="M 277.35409,49.091704 256.9589,58.158197 V 54.976971 L 273.04177,47.995948 256.9589,41.014925 V 37.8337 l 20.39519,9.066493 z"
         inkscape:connector-curvature="0" />
    </g>
  </g>
  <path
     id="path1602"
     d="m 291.22243,65.594814 c 0,-3.409602 2.83564,-6.173186 6.33398,-6.173186 1.67957,0 3.29074,0.650087 4.47816,1.807789 1.18782,1.157701 1.85542,2.728169 1.85542,4.365397 0,3.409602 -2.83564,6.173186 -6.33398,6.173186 -3.49794,0 -6.33358,-2.763992 -6.33358,-6.173186 z"
     inkscape:connector-curvature="0"
     style="stroke:#000000;stroke-width:1;stroke-miterlimit:4;stroke-dasharray:none" />
  <path
     style="stroke:#000000;stroke-width:1;stroke-miterlimit:4;stroke-dasharray:none"
     inkscape:connector-curvature="0"
     d="m 265.94277,40.452305 c 0,-3.409602 2.83564,-6.173186 6.33398,-6.173186 1.67957,0 3.29074,0.650087 4.47816,1.807789 1.18782,1.157701 1.85542,2.728169 1.85542,4.365397 0,3.409602 -2.83564,6.173186 -6.33398,6.173186 -3.49794,0 -6.33358,-2.763992 -6.33358,-6.173186 z"
     id="path1604" />
  <path
     id="path1606"
     d="m 292.122,15.384508 c 0,-3.409602 2.83564,-6.1731863 6.33398,-6.1731863 1.67957,0 3.29074,0.650087 4.47816,1.8077893 1.18782,1.157701 1.85542,2.728169 1.85542,4.365397 0,3.409602 -2.83564,6.173186 -6.33398,6.173186 -3.49794,0 -6.33358,-2.763992 -6.33358,-6.173186 z"
     inkscape:connector-curvature="0"
     style="stroke:#000000;stroke-width:1;stroke-miterlimit:4;stroke-dasharray:none" />
  <path
     style="stroke:#000000;stroke-width:1;stroke-miterlimit:4;stroke-dasharray:none"
     inkscape:connector-curvature="0"
     d="m 317.7648,41.051814 c 0,-3.409602 2.83564,-6.173186 6.33398,-6.173186 1.67957,0 3.29074,0.650087 4.47816,1.807789 1.18782,1.157701 1.85542,2.728169 1.85542,4.365397 0,3.409602 -2.83564,6.173186 -6.33398,6.173186 -3.49794,0 -6.33358,-2.763992 -6.33358,-6.173186 z"
     id="path1608" />
  <path
     style="stroke:#000000;stroke-width:1;stroke-miterlimit:4;stroke-dasharray:none"
     inkscape:connector-curvature="0"
     d="m 264.68006,96.560917 c 0,-3.409602 2.83564,-6.173186 6.33398,-6.173186 1.67957,0 3.29074,0.650087 4.47816,1.807789 1.18782,1.157701 1.85542,2.728169 1.85542,4.365397 0,3.409602 -2.83564,6.173183 -6.33398,6.173183 -3.49794,0 -6.33358,-2.763989 -6.33358,-6.173183 z"
     id="path1610" />
  <path
     id="path1612"
     d="m 280.9004,96.560917 c 0,-3.409602 2.83564,-6.173186 6.33398,-6.173186 1.67957,0 3.29074,0.650087 4.47816,1.807789 1.18782,1.157701 1.85542,2.728169 1.85542,4.365397 0,3.409602 -2.83564,6.173183 -6.33398,6.173183 -3.49794,0 -6.33358,-2.763989 -6.33358,-6.173183 z"
     inkscape:connector-curvature="0"
     style="stroke:#000000;stroke-width:1;stroke-miterlimit:4;stroke-dasharray:none" />
  <path
     style="stroke:#000000;stroke-width:1;stroke-miterlimit:4;stroke-dasharray:none"
     inkscape:connector-curvature="0"
     d="m 296.38345,96.560917 c 0,-3.409602 2.83564,-6.173186 6.33398,-6.173186 1.67957,0 3.29074,0.650087 4.47816,1.807789 1.18782,1.157701 1.85542,2.728169 1.85542,4.365397 0,3.409602 -2.83564,6.173183 -6.33398,6.173183 -3.49794,0 -6.33358,-2.763989 -6.33358,-6.173183 z"
     id="path1614" />
  <path
     id="path1616"
     d="m 311.8665,96.560917 c 0,-3.409602 2.83564,-6.173186 6.33398,-6.173186 1.67957,0 3.29074,0.650087 4.47816,1.807789 1.18782,1.157701 1.85542,2.728169 1.85542,4.365397 0,3.409602 -2.83564,6.173183 -6.33398,6.173183 -3.49794,0 -6.33358,-2.763989 -6.33358,-6.173183 z"
     inkscape:connector-curvature="0"
     style="stroke:#000000;stroke-width:1;stroke-miterlimit:4;stroke-dasharray:none" />
  <g
     id="g7945">
    <path
       sodipodi:nodetypes="ccccccccc"
       inkscape:connector-curvature="0"
       id="path4580"
       d="M 19.745626,127.17867 V 106.14945 L 36.015024,90.88808 h 22.413292 l 15.722728,15.72273 v 22.20786 L 59.396301,143.23741 34.836382,142.9014 Z"
       style="fill:none;stroke:#000000;stroke-width:2;stroke-linecap:butt;stroke-linejoin:miter;stroke-miterlimit:4;stroke-dasharray:none;stroke-opacity:1" />
    <path
       style="fill:none;stroke:#000000;stroke-width:2;stroke-linecap:butt;stroke-linejoin:miter;stroke-miterlimit:4;stroke-dasharray:none;stroke-opacity:1"
       d="M 81.745626,127.17867 V 106.14945 L 98.015024,90.88808 h 22.413296 l 15.72272,15.72273 v 22.20786 L 121.3963,143.23741 96.836382,142.9014 Z"
       id="path7935"
       inkscape:connector-curvature="0"
       sodipodi:nodetypes="ccccccccc" />
    <path
       sodipodi:nodetypes="ccccccccc"
       inkscape:connector-curvature="0"
       id="path7937"
       d="m 143.74563,127.17867 v -21.02922 l 16.26939,-15.26137 h 22.4133 l 15.72272,15.72273 v 22.20786 l -14.75474,14.41874 -24.55992,-0.33601 z"
       style="fill:none;stroke:#000000;stroke-width:2;stroke-linecap:butt;stroke-linejoin:miter;stroke-miterlimit:4;stroke-dasharray:none;stroke-opacity:1" />
    <path
       style="fill:none;stroke:#000000;stroke-width:2;stroke-linecap:butt;stroke-linejoin:miter;stroke-miterlimit:4;stroke-dasharray:none;stroke-opacity:1"
       d="m 205.74563,127.17867 v -21.02922 l 16.26939,-15.26137 h 22.4133 l 15.72272,15.72273 v 22.20786 l -14.75474,14.41874 -24.55992,-0.33601 z"
       id="path7939"
       inkscape:connector-curvature="0"
       sodipodi:nodetypes="ccccccccc" />
  </g>
  <g
     id="g7982"
     transform="translate(0,60)">
    <path
       style="fill:none;stroke:#000000;stroke-width:2;stroke-linecap:butt;stroke-linejoin:miter;stroke-miterlimit:4;stroke-dasharray:none;stroke-opacity:1"
       d="M 19.745626,127.17867 V 106.14945 L 36.015024,90.88808 h 22.413292 l 15.722728,15.72273 v 22.20786 L 59.396301,143.23741 34.836382,142.9014 Z"
       id="path7974"
       inkscape:connector-curvature="0"
       sodipodi:nodetypes="ccccccccc" />
    <path
       sodipodi:nodetypes="ccccccccc"
       inkscape:connector-curvature="0"
       id="path7976"
       d="M 81.745626,127.17867 V 106.14945 L 98.015024,90.88808 h 22.413296 l 15.72272,15.72273 v 22.20786 L 121.3963,143.23741 96.836382,142.9014 Z"
       style="fill:none;stroke:#000000;stroke-width:2;stroke-linecap:butt;stroke-linejoin:miter;stroke-miterlimit:4;stroke-dasharray:none;stroke-opacity:1" />
    <path
       style="fill:none;stroke:#000000;stroke-width:2;stroke-linecap:butt;stroke-linejoin:miter;stroke-miterlimit:4;stroke-dasharray:none;stroke-opacity:1"
       d="m 143.74563,127.17867 v -21.02922 l 16.26939,-15.26137 h 22.4133 l 15.72272,15.72273 v 22.20786 l -14.75474,14.41874 -24.55992,-0.33601 z"
       id="path7978"
       inkscape:connector-curvature="0"
       sodipodi:nodetypes="ccccccccc" />
    <path
       sodipodi:nodetypes="ccccccccc"
       inkscape:connector-curvature="0"
       id="path7980"
       d="m 205.74563,127.17867 v -21.02922 l 16.26939,-15.26137 h 22.4133 l 15.72272,15.72273 v 22.20786 l -14.75474,14.41874 -24.55992,-0.33601 z"
       style="fill:none;stroke:#000000;stroke-width:2;stroke-linecap:butt;stroke-linejoin:miter;stroke-miterlimit:4;stroke-dasharray:none;stroke-opacity:1" />
  </g>
  <g
     transform="translate(0,120)"
     id="g7992">
    <path
       sodipodi:nodetypes="ccccccccc"
       inkscape:connector-curvature="0"
       id="path7984"
       d="M 19.745626,127.17867 V 106.14945 L 36.015024,90.88808 h 22.413292 l 15.722728,15.72273 v 22.20786 L 59.396301,143.23741 34.836382,142.9014 Z"
       style="fill:none;stroke:#000000;stroke-width:2;stroke-linecap:butt;stroke-linejoin:miter;stroke-miterlimit:4;stroke-dasharray:none;stroke-opacity:1" />
    <path
       style="fill:none;stroke:#000000;stroke-width:2;stroke-linecap:butt;stroke-linejoin:miter;stroke-miterlimit:4;stroke-dasharray:none;stroke-opacity:1"
       d="M 81.745626,127.17867 V 106.14945 L 98.015024,90.88808 h 22.413296 l 15.72272,15.72273 v 22.20786 L 121.3963,143.23741 96.836382,142.9014 Z"
       id="path7986"
       inkscape:connector-curvature="0"
       sodipodi:nodetypes="ccccccccc" />
    <path
       sodipodi:nodetypes="ccccccccc"
       inkscape:connector-curvature="0"
       id="path7988"
       d="m 143.74563,127.17867 v -21.02922 l 16.26939,-15.26137 h 22.4133 l 15.72272,15.72273 v 22.20786 l -14.75474,14.41874 -24.55992,-0.33601 z"
       style="fill:none;stroke:#000000;stroke-width:2;stroke-linecap:butt;stroke-linejoin:miter;stroke-miterlimit:4;stroke-dasharray:none;stroke-opacity:1" />
    <path
       style="fill:none;stroke:#000000;stroke-width:2;stroke-linecap:butt;stroke-linejoin:miter;stroke-miterlimit:4;stroke-dasharray:none;stroke-opacity:1"
       d="m 205.74563,127.17867 v -21.02922 l 16.26939,-15.26137 h 22.4133 l 15.72272,15.72273 v 22.20786 l -14.75474,14.41874 -24.55992,-0.33601 z"
       id="path7990"
       inkscape:connector-curvature="0"
       sodipodi:nodetypes="ccccccccc" />
  </g>
  <g
     id="g8002"
     transform="translate(0,180)">
    <path
       style="fill:none;stroke:#000000;stroke-width:2;stroke-linecap:butt;stroke-linejoin:miter;stroke-miterlimit:4;stroke-dasharray:none;stroke-opacity:1"
       d="M 19.745626,127.17867 V 106.14945 L 36.015024,90.88808 h 22.413292 l 15.722728,15.72273 v 22.20786 L 59.396301,143.23741 34.836382,142.9014 Z"
       id="path7994"
       inkscape:connector-curvature="0"
       sodipodi:nodetypes="ccccccccc" />
    <path
       sodipodi:nodetypes="ccccccccc"
       inkscape:connector-curvature="0"
       id="path7996"
       d="M 81.745626,127.17867 V 106.14945 L 98.015024,90.88808 h 22.413296 l 15.72272,15.72273 v 22.20786 L 121.3963,143.23741 96.836382,142.9014 Z"
       style="fill:none;stroke:#000000;stroke-width:2;stroke-linecap:butt;stroke-linejoin:miter;stroke-miterlimit:4;stroke-dasharray:none;stroke-opacity:1" />
    <path
       style="fill:none;stroke:#000000;stroke-width:2;stroke-linecap:butt;stroke-linejoin:miter;stroke-miterlimit:4;stroke-dasharray:none;stroke-opacity:1"
       d="m 143.74563,127.17867 v -21.02922 l 16.26939,-15.26137 h 22.4133 l 15.72272,15.72273 v 22.20786 l -14.75474,14.41874 -24.55992,-0.33601 z"
       id="path7998"
       inkscape:connector-curvature="0"
       sodipodi:nodetypes="ccccccccc" />
    <path
       sodipodi:nodetypes="ccccccccc"
       inkscape:connector-curvature="0"
       id="path8000"
       d="m 205.74563,127.17867 v -21.02922 l 16.26939,-15.26137 h 22.4133 l 15.72272,15.72273 v 22.20786 l -14.75474,14.41874 -24.55992,-0.33601 z"
       style="fill:none;stroke:#000000;stroke-width:2;stroke-linecap:butt;stroke-linejoin:miter;stroke-miterlimit:4;stroke-dasharray:none;stroke-opacity:1" />
  </g>
</svg>
